<?xml version="1.0" standalone="no"?>
<!DOCTYPE svg PUBLIC "-//W3C//DTD SVG 20010904//EN"
 "http://www.w3.org/TR/2001/REC-SVG-20010904/DTD/svg10.dtd">
<svg version="1.0" xmlns="http://www.w3.org/2000/svg"
 width="500.000000pt" height="500.000000pt" viewBox="0 0 500.000000 500.000000"
 preserveAspectRatio="xMidYMid meet">
<metadata>
Created by potrace 1.11, written by Peter Selinger 2001-2013
</metadata>
<g transform="translate(0.000000,500.000000) scale(0.100000,-0.100000)"
fill="#000000" stroke="none">
<path d="M4735 4945 c-11 -2 -108 -11 -216 -20 -166 -15 -227 -15 -398 -6
-110 6 -242 11 -292 11 -89 0 -92 -1 -120 -31 -33 -35 -1 31 -412 -859 -494
-1072 -694 -1498 -738 -1573 -21 -38 -39 -73 -39 -78 0 -5 -8 -9 -18 -9 -23 0
-61 40 -101 106 -17 28 -265 572 -550 1209 -292 650 -533 1174 -549 1194 l-29
36 -154 2 c-85 2 -342 -3 -571 -10 -408 -12 -418 -12 -439 -34 -22 -22 -22
-23 -11 -185 25 -351 43 -621 67 -1043 14 -242 33 -561 42 -710 13 -213 17
-534 22 -1530 3 -693 10 -1268 14 -1277 5 -9 22 -21 39 -27 44 -15 1098 -15
1131 0 62 28 62 32 -3 1269 -45 855 -46 962 -16 929 23 -25 219 -470 503
-1144 268 -636 452 -1046 484 -1081 21 -23 80 -44 123 -44 38 0 61 14 84 52
11 18 160 381 332 807 344 854 514 1267 582 1411 l45 95 12 -30 c9 -21 11 -67
6 -155 -19 -388 -28 -553 -50 -910 -38 -601 -55 -934 -55 -1047 0 -93 2 -104
24 -130 l24 -28 578 -3 c423 -2 586 1 607 9 65 27 61 -48 68 1254 7 1219 8
1268 59 2065 38 597 59 956 71 1208 l12 254 -26 25 c-25 25 -88 37 -142 28z"/>
</g>
</svg>
