<svg version="1" xmlns="http://www.w3.org/2000/svg" width="800" height="800" viewBox="0 0 600.000000 600.000000"><path d="M0 30.7v20l44.8-.1h44.7l.3 249.4c.1 148.3-.2 249.6-.7 249.9-.5.3-20.8.6-45 .5H0v39.8l188.3-.5c103.5-.3 192.7-.8 198.2-1 24.5-1.1 36.2-1.8 38.5-2.2 1.4-.2 5.4-.7 9-1 6.1-.6 25.8-3.7 30.8-5 1.2-.3 3-.7 4-.9 11.5-2.6 16-4.1 31.2-9.8 38.9-14.7 72.4-45.2 87.5-79.6 3.9-9 6.7-16.9 8.1-23.3 2.7-13 3.6-20.6 3.9-33.4.2-12.4-.1-16.9-2-26-5.2-25.5-16.6-45.4-38.7-67.6-13.6-13.7-26.9-22.1-53.8-34.2-15.6-7-34.2-13.2-45.5-15.2-2.2-.4-4.9-.9-6-1.1-1.1-.2-5.6-.6-9.9-.8-14.6-1-11.9-3.3 11.9-10.1 20.9-6 48.6-17.9 63-27 37.6-24.1 59.3-68.2 54.1-110.3-.7-6.2-4.1-18.7-7-26.5-18.3-48.8-64.9-82.4-133.1-96.2-32.2-6.5-30-6.5-254.7-7.2L0 10.8v19.9zm300 20.8c81.3 1 87.1 1.5 100.2 8.1 20.8 10.5 36.9 29.4 46.1 53.9 5.6 15.1 7.2 24.9 7.2 44-.1 31.1-11.6 59.6-32.4 80.5-12.7 12.8-29.7 23.3-46.1 28.4-17 5.4-22.1 5.7-105.7 6.1l-68.3.4V50.4l23.3.2c12.7.2 46.8.6 75.7.9zm11.5 250.9c45.1.6 54.4.9 65.8 2.1 20 2.1 34.8 6.9 49.1 16.2 13.4 8.6 23 19.5 31.4 35.4 4.6 8.5 10.5 23.6 11.6 29.2.2 1.2 1.1 5.1 1.9 8.7.8 3.6 1.8 8.7 2.1 11.5.4 2.7.9 6.6 1.1 8.5.7 5 .6 27.7-.1 33-3.9 29.7-14.7 54.1-31.8 71.3-14.8 14.9-36.3 25.6-56.4 28.2-2 .2-5.5.7-7.7 1-6.6 1-13 1.4-35.5 2-24.7.8-138.9 1.3-140.7.7-1-.3-1.3-26.1-1.3-124.2V302.1l4.3-.3c5.3-.4 45.2-.1 106.2.6z"/></svg>